HIERARCHY
ROOT root
{
	OFFSET	0	13.1	24.9
	CHANNELS 6  Xposition Yposition Zposition Xrotation Yrotation Zrotation
	JOINT spine_1
	{
		OFFSET	0	9.99999	0
		CHANNELS 3  Xrotation Yrotation Zrotation
		JOINT spine_2
		{
			OFFSET	0	112	-10
			CHANNELS 3  Xrotation Yrotation Zrotation
			JOINT spine_3
			{
				OFFSET	0	206.5	19.3
				CHANNELS 3  Xrotation Yrotation Zrotation
				JOINT spine_4
				{
					OFFSET	0	110.4	14.6
					CHANNELS 3  Xrotation Yrotation Zrotation
					JOINT neck_1
					{
						OFFSET	0	71.8	-50.3
						CHANNELS 3  Xrotation Yrotation Zrotation
						JOINT neck_2
						{
							OFFSET	0	86.2	-25.8
							CHANNELS 3  Xrotation Yrotation Zrotation
							JOINT head_ee
							{
								OFFSET	0	179.8	-8.7
								CHANNELS 3  Xrotation Yrotation Zrotation
								End Site
								{
									OFFSET	1	0	0
								}
							}
						}
					}
					JOINT left_clavicle
					{
						OFFSET	-43.2	22.4	-70.8
						CHANNELS 3  Xrotation Yrotation Zrotation
						JOINT left_shoulder
						{
							OFFSET	-93.9	-5.79999	48.7
							CHANNELS 3  Xrotation Yrotation Zrotation
							JOINT left_elbow
							{
								OFFSET	-291.4	-30.8	15.2
								CHANNELS 3  Xrotation Yrotation Zrotation
								JOINT left_lowarm_twist
								{
									OFFSET	-110.7	-3.89999	13.6
									CHANNELS 3  Xrotation Yrotation Zrotation
									JOINT left_hand
									{
										OFFSET	-110.7	-3.89999	13.6
										CHANNELS 3  Xrotation Yrotation Zrotation
										JOINT left_ee
										{
											OFFSET	-80.8	-5.10001	12.1
											CHANNELS 3  Xrotation Yrotation Zrotation
											End Site
											{
												OFFSET	1	0	0
											}
										}
									}
								}
							}
						}
					}
					JOINT right_clavicle
					{
						OFFSET	43.2	22.4	-70.8
						CHANNELS 3  Xrotation Yrotation Zrotation
						JOINT right_shoulder
						{
							OFFSET	93.9	-5.79999	48.7
							CHANNELS 3  Xrotation Yrotation Zrotation
							JOINT right_elbow
							{
								OFFSET	291.4	-30.8	15.2
								CHANNELS 3  Xrotation Yrotation Zrotation
								JOINT right_lowarm_twist
								{
									OFFSET	110.7	-3.89999	13.6
									CHANNELS 3  Xrotation Yrotation Zrotation
									JOINT right_hand
									{
										OFFSET	110.7	-3.89999	13.6
										CHANNELS 3  Xrotation Yrotation Zrotation
										JOINT right_ee
										{
											OFFSET	80.8	-5.10001	12.1
											CHANNELS 3  Xrotation Yrotation Zrotation
											End Site
											{
												OFFSET	1	0	0
											}
										}
									}
								}
							}
						}
					}
				}
			}
		}
	}
	JOINT left_hip
	{
		OFFSET	-82.8	-127.5	0.300001
		CHANNELS 3  Xrotation Yrotation Zrotation
		JOINT left_knee
		{
			OFFSET	-28.2	-396.7	2.2
			CHANNELS 3  Xrotation Yrotation Zrotation
			JOINT left_ankle
			{
				OFFSET	-11.7	-411.3	35.4
				CHANNELS 3  Xrotation Yrotation Zrotation
				JOINT left_toes
				{
					OFFSET	0	-60	-88.6
					CHANNELS 3  Xrotation Yrotation Zrotation
					JOINT left_foot_ee
					{
						OFFSET	-22.5	-16.5	-42.2
						CHANNELS 3  Xrotation Yrotation Zrotation
						End Site
						{
							OFFSET	1	0	0
						}
					}
				}
			}
		}
	}
	JOINT right_hip
	{
		OFFSET	82.8	-127.5	0.300001
		CHANNELS 3  Xrotation Yrotation Zrotation
		JOINT right_knee
		{
			OFFSET	28.2	-396.7	2.2
			CHANNELS 3  Xrotation Yrotation Zrotation
			JOINT right_ankle
			{
				OFFSET	11.7	-411.3	35.4
				CHANNELS 3  Xrotation Yrotation Zrotation
				JOINT right_toes
				{
					OFFSET	0	-60	-88.6
					CHANNELS 3  Xrotation Yrotation Zrotation
					JOINT right_foot_ee
					{
						OFFSET	22.5	-16.5	-42.2
						CHANNELS 3  Xrotation Yrotation Zrotation
						End Site
						{
							OFFSET	1	0	0
						}
					}
				}
			}
		}
	}
}
MOTION
Frames: 5
Frame Time: 0.02
575.223 746.676 -508.292 106.53 -76.6695 107.471 -8.0166 0.0215557 -0.156566 -8.01659 0.0314747 -0.154877 -8.01665 0.0828988 -0.134556 -8.01667 0.0606078 -0.14596 -4.34501 6.22313 6.00016 -4.24685 6.82975 7.16205 -0.0 0.0 -0.0 8.13858 18.7074 14.6596 -8.52674 -11.6765 62.8777 0.883792 -23.6438 0.18499 -77.9982 -7.56736 5.30222 1.73318 20.4073 18.8471 -0.0 0.0 -0.0 11.5366 19.2178 -22.9274 -0.399519 19.3164 -47.3635 1.43216 35.3518 -0.456419 85.0698 4.43488 8.86935 0.875044 -1.05181 -6.28263 0.0 0.0 0.0 14.0489 37.9962 -15.1845 -13.9297 0.318554 2.10871 -7.32842 -28.2152 1.36027 -19.8343 0.0 0.0 -0.0 0.0 -0.0 -22.4549 33.8248 -4.80055 0.421914 0.0176035 0.0623525 32.7653 -27.0761 4.47874 4.3973 -0.0 -0.0 0.0 0.0 0.0 
580.617 743.777 -509.396 108.67 -77.1849 110.514 -8.04575 0.000248812 -0.260465 -8.04571 0.0168223 -0.259921 -8.04571 0.105449 -0.238165 -8.04578 0.0665117 -0.251829 -2.54604 7.5366 6.3713 -2.42553 8.65025 7.69117 -0.0 0.0 -0.0 7.82479 19.1746 14.1132 -8.5963 -11.0389 63.2008 0.778549 -21.0901 0.144931 -77.5879 -7.51511 5.30572 1.94632 20.5371 20.2386 -0.0 0.0 -0.0 11.6087 19.5995 -23.0664 -0.0493057 19.6859 -45.7222 1.6323 38.9557 -0.577351 84.916 4.41647 8.86225 0.984702 -1.933 -7.37334 0.0 0.0 0.0 15.2467 39.4072 -14.5543 -5.40758 0.184572 0.809072 -11.1281 -27.8144 2.06767 -20.6354 0.0 0.0 -0.0 0.0 -0.0 -23.0555 33.8371 -4.58397 3.27503 0.148655 0.480462 33.5092 -26.8467 4.55472 3.83458 -0.0 -0.0 0.0 0.0 0.0 
590.084 739.239 -508.166 111.973 -76.8713 113.6 -8.04998 0.00675829 -0.244479 -8.04995 0.0223014 -0.243554 -8.04998 0.104962 -0.220905 -8.05004 0.0687572 -0.234709 -2.079 7.66142 4.70888 -1.98971 10.1198 5.9521 -0.0 0.0 -0.0 7.71674 19.9504 13.8648 -9.48449 -10.0536 63.6437 0.728287 -19.838 0.127357 -77.377 -7.48823 5.30737 2.13122 20.3256 21.3654 -0.0 0.0 -0.0 12.2941 22.7199 -24.3901 1.72499 19.8515 -44.8102 1.61869 38.7215 -0.568817 85.1343 4.44262 8.87231 0.891964 -1.63533 -6.63228 0.0 0.0 0.0 17.3205 39.2491 -14.6414 -2.62248 0.0990591 0.390239 -12.1333 -27.3257 2.24329 -20.933 0.0 0.0 -0.0 0.0 -0.0 -23.9266 33.9474 -4.29467 3.28279 0.149039 0.48159 34.4266 -26.6598 4.64962 3.88478 -0.0 -0.0 0.0 0.0 0.0 
595.999 738.425 -502.044 118.34 -76.3647 120.554 -8.02136 0.0208081 -0.331254 -8.0213 0.0418444 -0.329259 -8.02143 0.152729 -0.29468 -8.02154 0.104273 -0.315103 -1.13749 7.82918 2.23416 -1.04803 12.2731 3.30562 -0.0 0.0 -0.0 7.57092 20.9653 13.5367 -10.6374 -9.0267 63.9115 0.689649 -18.8619 0.114554 -77.0757 -7.44982 5.30955 2.32195 20.0016 22.5144 -0.0 0.0 -0.0 13.3818 27.1414 -26.4199 4.07389 20.03 -43.5232 1.5963 38.3327 -0.554871 85.4224 4.47717 8.88542 0.680366 -1.52748 -5.17371 0.0 0.0 0.0 19.5074 39.2549 -14.0057 0.570969 -0.0239323 -0.0843501 -13.5783 -26.5613 2.49061 -21.3596 0.0 0.0 -0.0 0.0 -0.0 -24.3469 34.17 -4.39476 3.29831 0.149809 0.483846 35.7342 -26.3848 4.78138 3.95101 -0.0 -0.0 0.0 0.0 0.0 
605.554 731.995 -505.437 122.023 -76.1862 123.871 -7.98372 0.0777157 -0.201684 -7.9837 0.0903919 -0.19633 -7.984 0.152402 -0.153263 -7.98401 0.126285 -0.175409 -1.84602 7.99798 2.484 -1.76175 12.4655 3.64435 -0.0 0.0 -0.0 7.45562 21.5646 13.3014 -11.728 -8.52795 64.0389 0.675792 -18.5089 0.110115 -76.93 -7.43124 5.31054 2.30199 19.7511 22.3152 -0.0 0.0 -0.0 13.2127 27.375 -25.9988 5.11284 20.4437 -42.7447 1.6597 39.4228 -0.594669 85.4151 4.4763 8.88509 0.641404 -1.4738 -4.89165 0.0 0.0 0.0 21.6771 39.0943 -14.1696 1.98492 -0.0868124 -0.292195 -14.0867 -27.0029 2.59945 -21.2388 0.0 0.0 -0.0 0.0 -0.0 -24.7307 34.1643 -4.53939 3.24793 0.147312 0.476522 36.2922 -26.5015 4.84395 3.92916 -0.0 -0.0 0.0 0.0 0.0 
